<mxfile host="app.diagrams.net" modified="2023-07-11T14:37:51.078Z" agent="Mozilla/5.0 (Macintosh; Intel Mac OS X 10_15_7) AppleWebKit/605.1.15 (KHTML, like Gecko) Version/16.5 Safari/605.1.15" etag="afIgnTcgSu0Z3mZ8DQJM" version="21.6.1" type="github">
  <diagram name="Page-1" id="ZJVI5weoRwxCD6mdnaFn">
    <mxGraphModel dx="829" dy="579" grid="1" gridSize="10" guides="1" tooltips="1" connect="1" arrows="1" fold="1" page="1" pageScale="1" pageWidth="827" pageHeight="1169" math="0" shadow="0">
      <root>
        <mxCell id="0" />
        <mxCell id="1" parent="0" />
        <mxCell id="XLbvD_315AaSUv3qH8E9-13" value="" style="rounded=1;whiteSpace=wrap;html=1;fillColor=#fff2cc;strokeColor=#d6b656;" vertex="1" parent="1">
          <mxGeometry x="40" y="240" width="760" height="280" as="geometry" />
        </mxCell>
        <mxCell id="XLbvD_315AaSUv3qH8E9-12" value="" style="rounded=1;whiteSpace=wrap;html=1;fillColor=#dae8fc;strokeColor=#6c8ebf;" vertex="1" parent="1">
          <mxGeometry x="40" y="40" width="760" height="160" as="geometry" />
        </mxCell>
        <mxCell id="FjG-L-fSqGVDfDOuXEye-6" value="BigQuery" style="rounded=1;whiteSpace=wrap;html=1;fontSize=14;" parent="1" vertex="1">
          <mxGeometry x="80" y="70" width="200" height="40" as="geometry" />
        </mxCell>
        <mxCell id="XLbvD_315AaSUv3qH8E9-2" value="Ads Data Hub" style="rounded=1;whiteSpace=wrap;html=1;fontSize=14;" vertex="1" parent="1">
          <mxGeometry x="320" y="70" width="200" height="40" as="geometry" />
        </mxCell>
        <mxCell id="XLbvD_315AaSUv3qH8E9-3" value="Looker Studio" style="rounded=1;whiteSpace=wrap;html=1;fontSize=14;" vertex="1" parent="1">
          <mxGeometry x="560" y="70" width="200" height="40" as="geometry" />
        </mxCell>
        <mxCell id="XLbvD_315AaSUv3qH8E9-4" value="Salesforce CRM" style="rounded=1;whiteSpace=wrap;html=1;fontSize=14;" vertex="1" parent="1">
          <mxGeometry x="80" y="280" width="200" height="80" as="geometry" />
        </mxCell>
        <mxCell id="XLbvD_315AaSUv3qH8E9-5" value="Adara" style="rounded=1;whiteSpace=wrap;html=1;fontSize=14;" vertex="1" parent="1">
          <mxGeometry x="320" y="280" width="200" height="80" as="geometry" />
        </mxCell>
        <mxCell id="XLbvD_315AaSUv3qH8E9-6" value="Google Analytics 4" style="rounded=1;whiteSpace=wrap;html=1;fontSize=14;" vertex="1" parent="1">
          <mxGeometry x="200" y="400" width="200" height="80" as="geometry" />
        </mxCell>
        <mxCell id="XLbvD_315AaSUv3qH8E9-7" value="Firebase" style="rounded=1;whiteSpace=wrap;html=1;fontSize=14;" vertex="1" parent="1">
          <mxGeometry x="560" y="340" width="200" height="80" as="geometry" />
        </mxCell>
        <mxCell id="XLbvD_315AaSUv3qH8E9-14" value="External APIs" style="rounded=1;whiteSpace=wrap;html=1;fontSize=14;" vertex="1" parent="1">
          <mxGeometry x="80" y="130" width="200" height="40" as="geometry" />
        </mxCell>
        <mxCell id="XLbvD_315AaSUv3qH8E9-15" value="" style="rounded=1;whiteSpace=wrap;html=1;fillColor=#d5e8d4;strokeColor=#82b366;" vertex="1" parent="1">
          <mxGeometry x="40" y="560" width="760" height="160" as="geometry" />
        </mxCell>
        <mxCell id="XLbvD_315AaSUv3qH8E9-16" value="Facebook Ads" style="rounded=1;whiteSpace=wrap;html=1;fontSize=14;" vertex="1" parent="1">
          <mxGeometry x="74" y="600" width="200" height="40" as="geometry" />
        </mxCell>
        <mxCell id="XLbvD_315AaSUv3qH8E9-17" value="Google Ads" style="rounded=1;whiteSpace=wrap;html=1;fontSize=14;" vertex="1" parent="1">
          <mxGeometry x="314" y="600" width="200" height="40" as="geometry" />
        </mxCell>
        <mxCell id="XLbvD_315AaSUv3qH8E9-18" value="Display &amp;amp; Video 360" style="rounded=1;whiteSpace=wrap;html=1;fontSize=14;" vertex="1" parent="1">
          <mxGeometry x="554" y="600" width="200" height="40" as="geometry" />
        </mxCell>
        <mxCell id="XLbvD_315AaSUv3qH8E9-19" value="" style="endArrow=classic;startArrow=classic;html=1;rounded=1;entryX=0.5;entryY=1;entryDx=0;entryDy=0;exitX=0.5;exitY=0;exitDx=0;exitDy=0;" edge="1" parent="1" source="XLbvD_315AaSUv3qH8E9-13" target="XLbvD_315AaSUv3qH8E9-12">
          <mxGeometry width="50" height="50" relative="1" as="geometry">
            <mxPoint x="380" y="270" as="sourcePoint" />
            <mxPoint x="430" y="220" as="targetPoint" />
          </mxGeometry>
        </mxCell>
        <mxCell id="XLbvD_315AaSUv3qH8E9-28" value="" style="endArrow=classic;startArrow=classic;html=1;rounded=1;entryX=0.5;entryY=1;entryDx=0;entryDy=0;exitX=0.5;exitY=0;exitDx=0;exitDy=0;fontStyle=7;fontSize=12;" edge="1" parent="1">
          <mxGeometry width="50" height="50" relative="1" as="geometry">
            <mxPoint x="419.5" y="560" as="sourcePoint" />
            <mxPoint x="419.5" y="520" as="targetPoint" />
          </mxGeometry>
        </mxCell>
        <mxCell id="XLbvD_315AaSUv3qH8E9-29" value="&lt;b&gt;&lt;i&gt;&lt;u&gt;DATA WAREHOUSING&lt;/u&gt;&lt;/i&gt;&lt;/b&gt;" style="rounded=1;whiteSpace=wrap;html=1;fontSize=14;fillColor=#3399FF;strokeColor=#6c8ebf;" vertex="1" parent="1">
          <mxGeometry x="560" y="130" width="200" height="40" as="geometry" />
        </mxCell>
        <mxCell id="XLbvD_315AaSUv3qH8E9-30" value="&lt;b&gt;&lt;i&gt;&lt;u&gt;CRM &amp;amp; ANALYTICS&lt;/u&gt;&lt;/i&gt;&lt;/b&gt;" style="rounded=1;whiteSpace=wrap;html=1;fontSize=14;fillColor=#FFD966;strokeColor=#6c8ebf;" vertex="1" parent="1">
          <mxGeometry x="560" y="450" width="200" height="40" as="geometry" />
        </mxCell>
        <mxCell id="XLbvD_315AaSUv3qH8E9-31" value="&lt;b&gt;&lt;i&gt;&lt;u&gt;MARKETING ACTIVATION&lt;/u&gt;&lt;/i&gt;&lt;/b&gt;" style="rounded=1;whiteSpace=wrap;html=1;fontSize=14;fillColor=#669c35;strokeColor=#6c8ebf;" vertex="1" parent="1">
          <mxGeometry x="554" y="660" width="200" height="40" as="geometry" />
        </mxCell>
        <mxCell id="XLbvD_315AaSUv3qH8E9-32" value="GWR App" style="rounded=1;whiteSpace=wrap;html=1;fontSize=14;" vertex="1" parent="1">
          <mxGeometry x="74" y="660" width="200" height="40" as="geometry" />
        </mxCell>
        <mxCell id="XLbvD_315AaSUv3qH8E9-33" value="Email" style="rounded=1;whiteSpace=wrap;html=1;fontSize=14;" vertex="1" parent="1">
          <mxGeometry x="314" y="660" width="200" height="40" as="geometry" />
        </mxCell>
      </root>
    </mxGraphModel>
  </diagram>
</mxfile>
